<svg xmlns="http://www.w3.org/2000/svg" width="200" height="200" viewBox="0 0 200 200">
    <!-- Background Circle -->
    <circle cx="100" cy="100" r="98" fill="#3a0ca3" stroke="#7b2cbf" stroke-width="4"/>
    
    <!-- Abstract Avatar Design -->
    <path d="M100 60 C60 60 40 100 40 130 C40 160 70 180 100 180 C130 180 160 160 160 130 C160 100 140 60 100 60" 
          fill="#1a1a1a"/>
    <circle cx="100" cy="90" r="30" fill="#1a1a1a"/>
    
    <!-- Decorative Elements -->
    <path d="M70 85 Q100 110 130 85" stroke="#f72585" stroke-width="3" fill="none"/>
    <circle cx="80" cy="75" r="5" fill="#f72585"/>
    <circle cx="120" cy="75" r="5" fill="#f72585"/>
    
    <!-- Crossed Swords -->
    <g transform="translate(100 45) rotate(45)">
        <!-- Sword 1 -->
        <path d="M-30 -5 L30 -5 L35 0 L30 5 L-30 5 L-35 0 Z" 
              fill="#f72585" stroke="#7b2cbf" stroke-width="2"/>
        <rect x="-40" y="-3" width="10" height="6" fill="#7b2cbf"/>
    </g>
    <g transform="translate(100 45) rotate(-45)">
        <!-- Sword 2 -->
        <path d="M-30 -5 L30 -5 L35 0 L30 5 L-30 5 L-35 0 Z" 
              fill="#f72585" stroke="#7b2cbf" stroke-width="2"/>
        <rect x="-40" y="-3" width="10" height="6" fill="#7b2cbf"/>
    </g>
</svg>