<svg xmlns="http://www.w3.org/2000/svg" width="200" height="200" viewBox="0 0 200 200">
    <!-- Background Circle -->
    <circle cx="100" cy="100" r="98" fill="#3a0ca3" stroke="#7b2cbf" stroke-width="4"/>
    
    <!-- Abstract Avatar Design -->
    <path d="M100 60 C60 60 40 100 40 130 C40 160 70 180 100 180 C130 180 160 160 160 130 C160 100 140 60 100 60" 
          fill="#1a1a1a"/>
    <circle cx="100" cy="90" r="30" fill="#1a1a1a"/>
    
    <!-- Decorative Elements -->
    <path d="M70 85 Q100 110 130 85" stroke="#f72585" stroke-width="3" fill="none"/>
    <circle cx="80" cy="75" r="5" fill="#f72585"/>
    <circle cx="120" cy="75" r="5" fill="#f72585"/>
    
    <!-- Developer-style Glasses -->
    <path d="M65 75 L85 75 M115 75 L135 75" stroke="#f72585" stroke-width="3"/>
    <path d="M85 75 A15 15 0 0 1 115 75" stroke="#f72585" stroke-width="3" fill="none"/>
    
    <!-- Code Symbol -->
    <path d="M85 40 L75 55 L85 70 M115 40 L125 55 L115 70" 
          stroke="#f72585" stroke-width="3" fill="none"/>
</svg>